<?xml version="1.0" encoding="UTF-8" standalone="no"?>
<svg width="19px" height="16px" viewBox="0 0 19 16" version="1.1" xmlns="http://www.w3.org/2000/svg" xmlns:xlink="http://www.w3.org/1999/xlink">
    <!-- Generator: Sketch 3.8.3 (29802) - http://www.bohemiancoding.com/sketch -->
    <title>icon--outbound</title>
    <desc>Created with Sketch.</desc>
    <defs></defs>
    <g id="Symbols" stroke="none" stroke-width="1" fill="none" fill-rule="evenodd">
        <g id="icon--outbound" fill="#28D886">
            <path d="M15.5,2 L9,8.5 L9,10 L10.5,10 L17,3.5 L17,9 L19,9 L19,1 L19,1.66533454e-15 L10,1.20613581e-17 L10,2 L15.5,2 L15.5,2 Z M4.5,16 L3,16 L3,4.5 L3,3 L12,3 L10,5 L5,5 L5,14 L14,14 L14,9 L16,7 L16,15 L16,16 L4.5,16 L4.5,16 Z" id="outbound"></path>
        </g>
    </g>
</svg>