<?xml version="1.0" encoding="UTF-8" standalone="no"?>
<svg width="19px" height="19px" viewBox="0 0 19 19" version="1.1" xmlns="http://www.w3.org/2000/svg" xmlns:xlink="http://www.w3.org/1999/xlink">
    <!-- Generator: Sketch 3.7.2 (28276) - http://www.bohemiancoding.com/sketch -->
    <title>icon--facebook</title>
    <desc>Created with Sketch.</desc>
    <defs></defs>
    <g id="Symbols" stroke="none" stroke-width="1" fill="none" fill-rule="evenodd">
        <g id="layout/footer" transform="translate(-240.000000, -105.000000)" fill="#CACACA">
            <g id="follow" transform="translate(240.000000, 105.000000)">
                <g id="fb">
                    <path d="M9.30486111,18.8 C14.2754241,18.8 18.3048611,14.770563 18.3048611,9.8 C18.3048611,4.82943701 14.2754241,0.8 9.30486111,0.8 C4.33429812,0.8 0.304861111,4.82943701 0.304861111,9.8 C0.304861111,14.770563 4.33429812,18.8 9.30486111,18.8 L9.30486111,18.8 Z M10.1643704,15.0105263 L10.1643704,9.79938989 L11.7058455,9.79938989 L11.9101243,8.00360341 L10.1643704,8.00360341 L10.1669894,7.10479499 C10.1669894,6.6364262 10.2146763,6.38546352 10.9355445,6.38546352 L11.8992119,6.38546352 L11.8992119,4.58947368 L10.3575186,4.58947368 C8.50569697,4.58947368 7.85390374,5.46062333 7.85390374,6.92562307 L7.85390374,8.00380679 L6.69959795,8.00380679 L6.69959795,9.79959324 L7.85390374,9.79959324 L7.85390374,15.0105263 L10.1643704,15.0105263 L10.1643704,15.0105263 Z" id="icon--facebook"></path>
                </g>
            </g>
        </g>
    </g>
</svg>