<?xml version="1.0" encoding="UTF-8" standalone="no"?>
<svg width="19px" height="19px" viewBox="0 0 19 19" version="1.1" xmlns="http://www.w3.org/2000/svg" xmlns:xlink="http://www.w3.org/1999/xlink">
    <!-- Generator: Sketch 3.7.2 (28276) - http://www.bohemiancoding.com/sketch -->
    <title>icon--twitter</title>
    <desc>Created with Sketch.</desc>
    <defs></defs>
    <g id="Symbols" stroke="none" stroke-width="1" fill="none" fill-rule="evenodd">
        <g id="layout/footer" transform="translate(-340.000000, -105.000000)" fill="#CACACA">
            <g id="follow" transform="translate(240.000000, 105.000000)">
                <g id="twitter" transform="translate(100.000000, 0.000000)">
                    <path d="M9.30486111,18.8 C14.2754241,18.8 18.3048611,14.770563 18.3048611,9.8 C18.3048611,4.82943701 14.2754241,0.8 9.30486111,0.8 C4.33429812,0.8 0.304861111,4.82943701 0.304861111,9.8 C0.304861111,14.770563 4.33429812,18.8 9.30486111,18.8 L9.30486111,18.8 Z M11.2931903,5.53684211 C10.1150409,5.53684211 9.1599172,6.49274107 9.1599172,7.67177068 C9.1599172,7.83909962 9.17878159,8.00201316 9.21514117,8.15830357 C7.44223107,8.06927209 5.87036361,7.21930498 4.81817959,5.9276062 C4.63455608,6.2429657 4.52939473,6.6096734 4.52939473,7.00097039 C4.52939473,7.74161795 4.90599788,8.39513722 5.47839511,8.77798402 C5.12871935,8.76690742 4.7997716,8.67087218 4.51216576,8.51092763 C4.51201363,8.51987265 4.51197559,8.52877961 4.51197559,8.53780075 C4.51197559,9.57222556 5.24730637,10.4351344 6.22319611,10.6312397 C6.0441746,10.6799995 5.85572089,10.7061114 5.66118189,10.7061114 C5.52369246,10.7061114 5.39004436,10.6927129 5.25981924,10.6678191 C5.53126103,11.5159972 6.3190774,12.1332796 7.2525603,12.1505226 C6.52247809,12.723118 5.60264905,13.064437 4.60321685,13.064437 C4.43104129,13.064437 4.26122377,13.054312 4.0943348,13.034633 C5.03839088,13.640382 6.15971897,13.9938055 7.36441547,13.9938055 C11.2882461,13.9938055 13.433918,10.7405973 13.433918,7.91930028 C13.433918,7.82676692 13.4318262,7.73469032 13.4277566,7.64314662 C13.8445227,7.34209915 14.2061788,6.96606579 14.4921873,6.53792293 C14.1096129,6.70772603 13.6985138,6.82252679 13.2669529,6.87410338 C13.7074136,6.60990179 14.0456794,6.19150329 14.2049237,5.6929422 C13.7927597,5.93761701 13.3362111,6.11529934 12.850301,6.21106814 C12.461185,5.79609539 11.9067393,5.53684211 11.2931903,5.53684211 L11.2931903,5.53684211 Z" id="icon--twitter"></path>
                </g>
            </g>
        </g>
    </g>
</svg>