<?xml version="1.0" encoding="UTF-8" standalone="no"?>
<svg width="116px" height="30px" viewBox="0 0 116 30" version="1.1" xmlns="http://www.w3.org/2000/svg" xmlns:xlink="http://www.w3.org/1999/xlink">
    <!-- Generator: Sketch 3.7.2 (28276) - http://www.bohemiancoding.com/sketch -->
    <title>icon--appstore</title>
    <desc>Created with Sketch.</desc>
    <defs></defs>
    <g id="Symbols" stroke="none" stroke-width="1" fill="none" fill-rule="evenodd">
        <g id="icon--appstore" fill="#000000">
            <path d="M102.728479,4.31081081 C102.728479,4.31081081 102.826107,3.08614865 103.851198,3.08614865 C104.973917,3.08614865 104.876289,4.31081081 104.876289,4.31081081 L102.728479,4.31081081 Z M104.046453,7.15202703 C105.022731,7.15202703 105.608497,6.90709459 105.608497,6.90709459 L105.462056,6.1722973 C105.462056,6.1722973 105.071545,6.36824324 104.192895,6.36824324 C102.679665,6.36824324 102.728479,5.04560811 102.728479,5.04560811 L105.803753,5.04560811 C106.047822,3.91891892 105.510869,2.35135135 103.948826,2.35135135 C102.533223,2.35135135 101.752202,3.57601351 101.752202,4.84966216 C101.752202,6.02533784 102.386782,7.15202703 104.046453,7.15202703 L104.046453,7.15202703 Z M92.7216359,5.58445946 C92.7216359,6.56418919 93.1121469,7.20101351 93.9907965,7.20101351 C94.5765629,7.20101351 94.8206323,7.05405405 94.8206323,7.05405405 L94.7718184,6.27027027 C94.7718184,6.27027027 94.6253768,6.31925676 94.3324936,6.31925676 C93.9419826,6.31925676 93.7467271,6.07432432 93.7467271,5.48648649 L93.7467271,3.23310811 L94.8694461,3.23310811 L94.8694461,2.44932432 L93.7467271,2.44932432 L93.7467271,1.32263514 L92.7216359,1.61655405 L92.7216359,2.44932432 L92.0382417,2.44932432 L92.0382417,3.23310811 L92.7216359,3.23310811 L92.7216359,5.58445946 Z M81.3968184,4.75168919 C81.3968184,7.00506757 79.0049388,7.05405405 79.0049388,4.80067568 C79.0049388,2.59628378 81.3968184,2.5472973 81.3968184,4.75168919 L81.3968184,4.75168919 Z M82.4707235,4.75168919 C82.4707235,1.56756757 77.9798476,1.56756757 77.9798476,4.80067568 C77.9798476,8.08277027 82.4707235,7.9847973 82.4707235,4.75168919 L82.4707235,4.75168919 Z M71.5852308,3.18412162 C72.6591359,3.18412162 72.6591359,4.3597973 72.6591359,4.3597973 L72.6591359,5.14358108 C72.6591359,5.14358108 72.6591359,6.36824324 71.5364169,6.36824324 C69.9743731,6.36824324 69.8767454,3.18412162 71.5852308,3.18412162 L71.5852308,3.18412162 Z M71.2435337,7.20101351 C72.4150666,7.20101351 72.7567636,6.36824324 72.7567636,6.36824324 L72.8055775,7.10304054 L73.733041,7.10304054 C73.733041,7.10304054 73.6842271,6.41722973 73.6842271,5.82939189 L73.6842271,0.342905405 L72.6591359,0.342905405 L72.6591359,2.98817568 C72.6591359,2.98817568 72.3174388,2.35135135 71.3411615,2.35135135 C68.7052125,2.35135135 68.6075848,7.20101351 71.2435337,7.20101351 L71.2435337,7.20101351 Z M65.1418001,5.73141892 C65.1418001,4.60472973 66.8502855,4.80067568 66.8502855,4.80067568 L66.8502855,5.48648649 C66.8502855,6.56418919 65.1418001,6.85810811 65.1418001,5.73141892 L65.1418001,5.73141892 Z M64.1167089,5.82939189 C64.1167089,7.34797297 66.1180775,7.64189189 66.8990994,6.56418919 L66.9967271,7.10304054 L67.9241906,7.10304054 L67.8265629,6.22128378 L67.8265629,4.26182432 C67.8265629,2.98817568 67.2407965,2.35135135 66.0204498,2.35135135 C65.0441724,2.35135135 64.458406,2.74324324 64.458406,2.74324324 L64.6536615,3.42905405 C64.6536615,3.42905405 65.0929863,3.08614865 65.8740082,3.08614865 C66.5574023,3.08614865 66.8014717,3.42905405 66.8014717,4.11486486 C65.4346833,4.06587838 64.1167089,4.55574324 64.1167089,5.82939189 L64.1167089,5.82939189 Z M55.915979,7.10304054 L56.9410702,7.10304054 L56.9410702,0.342905405 L55.915979,0.342905405 L55.915979,7.10304054 Z M48.7891542,2.44932432 L47.8128768,2.44932432 L46.8854133,6.12331081 L45.9091359,2.44932432 L45.0793001,2.44932432 L44.005395,6.12331081 L43.1755593,2.44932432 L42.150468,2.44932432 L43.5172563,7.10304054 L44.4935337,7.10304054 L45.4698111,3.67398649 L46.3972746,7.10304054 L47.373552,7.10304054 L48.7891542,2.44932432 Z M34.340249,3.77195946 C34.340249,5.38851351 33.5104133,6.31925676 31.8995556,6.31925676 C31.4602308,6.31925676 31.1673476,6.27027027 31.1673476,6.27027027 L31.1673476,1.51858108 C31.1673476,1.51858108 31.6554863,1.46959459 31.9971833,1.46959459 C33.5592271,1.46959459 34.340249,2.25337838 34.340249,3.77195946 L34.340249,3.77195946 Z M35.4141542,3.72297297 C35.4141542,1.66554054 34.1449936,0.636824324 31.9483695,0.636824324 C30.9720921,0.636824324 30.1910702,0.783783784 30.1910702,0.783783784 L30.1910702,7.05405405 C30.1910702,7.05405405 31.0697198,7.15202703 31.6554863,7.15202703 C33.998552,7.15202703 35.4141542,6.02533784 35.4141542,3.72297297 L35.4141542,3.72297297 Z M100.483041,19.1047297 C100.483041,18.6148649 100.97118,16.6064189 102.728479,16.6064189 C104.925103,16.6064189 104.778661,19.1047297 104.778661,19.1047297 L100.483041,19.1047297 Z M103.11899,24.9831081 C104.925103,24.9831081 106.243078,24.3952703 106.243078,24.3952703 L105.950194,22.9256757 C105.950194,22.9256757 105.022731,23.3665541 103.411873,23.3665541 C100.336599,23.3665541 100.483041,20.5743243 100.483041,20.5743243 L106.731216,20.5743243 C107.024099,17.6351351 105.852567,15.1858108 102.874921,15.1858108 C99.7020191,15.1858108 98.4816724,17.9780405 98.4816724,20.1824324 C98.4816724,22.7297297 99.8972746,24.9831081 103.11899,24.9831081 L103.11899,24.9831081 Z M94.6253768,19.5945946 C94.6253768,19.5945946 94.6741906,17.1452703 96.8220009,17.1452703 C97.1636979,17.1452703 97.4565812,17.1942568 97.4565812,17.1942568 L97.4565812,15.2347973 C97.4565812,15.2347973 97.1636979,15.1858108 96.9684425,15.1858108 C94.91826,15.1858108 94.3813074,17.2922297 94.3813074,17.2922297 L94.2836797,15.3817568 L92.4775666,15.3817568 L92.5263804,17.3902027 L92.5263804,24.7871622 L94.6253768,24.7871622 L94.6253768,19.5945946 Z M88.5724571,20.0844595 C88.5724571,24.5912162 83.6422563,24.6402027 83.6422563,20.1334459 C83.6422563,15.6756757 88.5724571,15.5777027 88.5724571,20.0844595 L88.5724571,20.0844595 Z M90.7202673,20.035473 C90.7202673,13.5202703 81.54326,13.4712838 81.54326,20.1824324 C81.54326,26.6976351 90.7202673,26.5996622 90.7202673,20.035473 L90.7202673,20.035473 Z M76.0272928,21.7010135 C76.0272928,23.8074324 76.7595009,24.9831081 78.6632417,24.9831081 C79.688333,24.9831081 80.2740994,24.7381757 80.2740994,24.7381757 L80.2252855,23.1706081 C80.2252855,23.1706081 79.8347746,23.2685811 79.297822,23.2685811 C78.4679863,23.2685811 78.0774753,22.6807432 78.0774753,21.5050676 L78.0774753,16.9493243 L80.3717271,16.9493243 L80.3717271,15.3817568 L78.0774753,15.3817568 L78.0774753,13.0304054 L76.0272928,13.6672297 L76.0272928,15.3817568 L74.6605045,15.3817568 L74.6605045,16.9493243 L76.0272928,16.9493243 L76.0272928,21.7010135 Z M68.8028403,24.9831081 C71.4876031,24.9831081 73.4889717,23.660473 73.4889717,21.1131757 C73.4889717,19.0557432 72.0245556,18.027027 70.2184425,17.2922297 C69.0469096,16.8023649 67.7289352,16.3125 67.7289352,14.9898649 C67.7289352,13.8631757 68.7540264,13.2753378 69.9743731,13.2753378 C71.3899753,13.2753378 72.4638804,13.8631757 72.4638804,13.8631757 L73.000833,12.1976351 C73.000833,12.1976351 71.9269279,11.5608108 70.023187,11.5608108 C67.6313074,11.5608108 65.6299388,12.9324324 65.6299388,15.2347973 C65.6299388,16.8513514 66.7526578,18.125 69.0469096,18.9577703 C70.3160702,19.3986486 71.3899753,19.9864865 71.3899753,21.3091216 C71.3899753,22.6317568 70.3160702,23.2685811 68.900468,23.2685811 C67.0943549,23.2685811 65.922822,22.4358108 65.922822,22.4358108 L65.4346833,24.1503378 C65.4346833,24.1503378 66.4597746,24.9831081 68.8028403,24.9831081 L68.8028403,24.9831081 Z M46.1043914,16.8513514 C49.4237344,16.8513514 49.4237344,23.3665541 46.0555775,23.3665541 C43.8589534,23.3665541 43.8101396,21.0641892 43.8101396,21.0641892 L43.8101396,19.3496622 C43.8101396,19.3496622 43.8589534,16.8513514 46.1043914,16.8513514 L46.1043914,16.8513514 Z M46.4949023,24.9831081 C52.0108695,24.9831081 52.0108695,15.1858108 46.7877855,15.1858108 C44.395906,15.1858108 43.5660702,16.9493243 43.5660702,16.9493243 L43.4684425,15.3817568 L41.6135155,15.3817568 L41.7111432,17.6351351 L41.7111432,28.6081081 L43.8101396,28.6081081 L43.8101396,23.660473 C43.8101396,23.660473 44.4447198,24.9831081 46.4949023,24.9831081 L46.4949023,24.9831081 Z M36.0975483,19.3496622 L32.6317636,19.3496622 L34.340249,13.6182432 L36.0975483,19.3496622 Z M39.9050301,24.7871622 L35.7070374,11.7567568 L33.1199023,11.7567568 L28.9219096,24.7871622 L31.0697198,24.7871622 L32.2412527,20.9662162 L36.4880593,20.9662162 L37.6595921,24.7871622 L39.9050301,24.7871622 Z M15.1075848,0 C12.422822,0.195945946 9.835687,2.84121622 10.1285702,5.78040541 C13.0085885,5.87837838 15.400468,2.93918919 15.1075848,0 L15.1075848,0 Z M19.6472746,8.52364865 C19.6472746,8.52364865 18.0364169,6.02533784 14.7170739,6.02533784 C12.8621469,6.02533784 11.3001031,7.20101351 10.3238257,7.20101351 C9.15229284,7.20101351 8.07838773,6.12331081 6.17464685,6.12331081 C2.51360671,6.12331081 -0.512853148,9.60135135 0.0729132755,14.8918919 C0.60986583,19.6435811 3.97802276,25.0320946 6.46753006,25.0320946 C8.02957386,25.0320946 8.71296802,24.0033784 10.6167089,24.0033784 C12.5204498,24.0033784 13.0574023,24.9831081 14.7170739,24.9831081 C17.4994644,24.9831081 19.7937162,20.035473 20.2818549,18.3699324 C16.4255593,16.8023649 15.4492819,11.1689189 19.6472746,8.52364865 L19.6472746,8.52364865 Z M85.0090447,4.26182432 C85.0090447,4.26182432 85.0090447,3.23310811 86.0341359,3.23310811 C87.0104133,3.23310811 86.9615994,4.31081081 86.9615994,4.31081081 L86.9615994,7.10304054 L87.9866906,7.10304054 L87.9866906,4.31081081 C87.9866906,4.31081081 88.0355045,2.35135135 86.375833,2.35135135 C85.3019279,2.35135135 84.9114169,3.18412162 84.9114169,3.18412162 L84.8626031,2.44932432 L83.9351396,2.44932432 L83.9839534,3.77195946 L83.9839534,7.10304054 L85.0090447,7.10304054 L85.0090447,4.26182432 Z M61.8712709,4.75168919 C61.8712709,7.00506757 59.4793914,7.05405405 59.4793914,4.80067568 C59.4793914,2.59628378 61.8712709,2.5472973 61.8712709,4.75168919 L61.8712709,4.75168919 Z M62.945176,4.75168919 C62.945176,1.56756757 58.4543001,1.56756757 58.4543001,4.80067568 C58.4543001,8.08277027 62.945176,7.9847973 62.945176,4.75168919 L62.945176,4.75168919 Z M40.0514717,4.75168919 C40.0514717,7.00506757 37.6595921,7.05405405 37.6595921,4.80067568 C37.6595921,2.59628378 40.0514717,2.5472973 40.0514717,4.75168919 L40.0514717,4.75168919 Z M41.1253768,4.75168919 C41.1253768,1.56756757 36.6345009,1.56756757 36.6345009,4.80067568 C36.6345009,8.08277027 41.1253768,7.9847973 41.1253768,4.75168919 L41.1253768,4.75168919 Z M56.8922563,16.8513514 C60.1627855,16.8513514 60.1627855,23.3665541 56.8434425,23.3665541 C54.6468184,23.3665541 54.5980045,21.0641892 54.5980045,21.0641892 L54.5980045,19.3496622 C54.5980045,19.3496622 54.6468184,16.8513514 56.8922563,16.8513514 L56.8922563,16.8513514 Z M57.2827673,24.9831081 C62.7987344,24.9831081 62.7987344,15.1858108 57.5756505,15.1858108 C55.1837709,15.1858108 54.3539352,16.9493243 54.3539352,16.9493243 L54.2563074,15.3817568 L52.4013804,15.3817568 L52.4990082,17.4881757 L52.4990082,28.6081081 L54.5980045,28.6081081 L54.5980045,23.660473 C54.5980045,23.660473 55.2325848,24.9831081 57.2827673,24.9831081 L57.2827673,24.9831081 Z M97.3101396,4.26182432 C97.3101396,4.26182432 97.3101396,3.23310811 98.3352308,3.23310811 C99.3115082,3.23310811 99.2626943,4.31081081 99.2626943,4.31081081 L99.2626943,7.10304054 L100.287786,7.10304054 L100.287786,4.31081081 C100.287786,4.31081081 100.336599,2.35135135 98.6769279,2.35135135 C97.6030228,2.35135135 97.3101396,3.18412162 97.3101396,3.18412162 L97.3101396,0.342905405 L96.2850483,0.342905405 L96.2850483,7.10304054 L97.3101396,7.10304054 L97.3101396,4.26182432 Z M51.1322198,4.26182432 C51.1322198,4.26182432 51.1322198,3.23310811 52.1573111,3.23310811 C53.1335885,3.23310811 53.0847746,4.31081081 53.0847746,4.31081081 L53.0847746,7.10304054 L54.1098658,7.10304054 L54.1098658,4.31081081 C54.1098658,4.31081081 54.1586797,2.35135135 52.4990082,2.35135135 C51.4251031,2.35135135 51.0345921,3.18412162 51.0345921,3.18412162 L50.9857782,2.44932432 L50.0583147,2.44932432 L50.1071286,3.77195946 L50.1071286,7.10304054 L51.1322198,7.10304054 L51.1322198,4.26182432 Z" id="Fill-1"></path>
        </g>
    </g>
</svg>