<?xml version="1.0" encoding="UTF-8" standalone="no"?>
<svg width="116px" height="30px" viewBox="0 0 116 30" version="1.1" xmlns="http://www.w3.org/2000/svg" xmlns:xlink="http://www.w3.org/1999/xlink">
    <!-- Generator: Sketch 3.7.2 (28276) - http://www.bohemiancoding.com/sketch -->
    <title>icon--googleplay</title>
    <desc>Created with Sketch.</desc>
    <defs>
        <linearGradient x1="0%" y1="0%" x2="100%" y2="0%" id="linearGradient-1">
            <stop stop-color="#3588B7" offset="0%"></stop>
            <stop stop-color="#66FFD4" offset="100%"></stop>
        </linearGradient>
        <linearGradient x1="0%" y1="0%" x2="100%" y2="0%" id="linearGradient-2">
            <stop stop-color="#9635C2" offset="0%"></stop>
            <stop stop-color="#E3424F" offset="100%"></stop>
        </linearGradient>
        <linearGradient x1="0%" y1="0%" x2="100%" y2="0%" id="linearGradient-3">
            <stop stop-color="#60CAB6" offset="0%"></stop>
            <stop stop-color="#D6FFA2" offset="100%"></stop>
        </linearGradient>
        <linearGradient x1="0%" y1="0%" x2="100%" y2="0%" id="linearGradient-4">
            <stop stop-color="#FF9877" offset="0%"></stop>
            <stop stop-color="#FFC466" offset="100%"></stop>
        </linearGradient>
    </defs>
    <g id="Symbols" stroke="none" stroke-width="1" fill="none" fill-rule="evenodd">
        <g id="icon--googleplay"></g>
        <path d="M35.2568493,2.82638889 L35.2568493,2.14583333 L31.8304795,2.14583333 L31.8304795,7.88194444 L35.2568493,7.88194444 L35.2568493,7.15277778 L32.5753425,7.15277778 L32.5753425,5.35416667 L35.0085616,5.35416667 L35.0085616,4.67361111 L32.5753425,4.67361111 L32.5753425,2.82638889 L35.2568493,2.82638889 Z M39.9246575,2.82638889 L39.9246575,2.14583333 L35.9023973,2.14583333 L35.9023973,2.82638889 L37.5410959,2.82638889 L37.5410959,7.88194444 L38.2859589,7.88194444 L38.2859589,2.82638889 L39.9246575,2.82638889 Z M42.5068493,7.88194444 L43.2517123,7.88194444 L43.2517123,2.14583333 L42.5068493,2.14583333 L42.5068493,7.88194444 Z M48.0684932,2.82638889 L48.0684932,2.14583333 L44.0462329,2.14583333 L44.0462329,2.82638889 L45.6849315,2.82638889 L45.6849315,7.88194444 L46.4297945,7.88194444 L46.4297945,2.82638889 L48.0684932,2.82638889 Z M57.9006849,7.88194444 L57.9006849,3.16666667 L60.880137,7.88194444 L61.6746575,7.88194444 L61.6746575,2.14583333 L60.9297945,2.14583333 L60.9297945,5.5 L60.9794521,6.61805556 L60.9297945,6.61805556 L58.0993151,2.14583333 L57.1558219,2.14583333 L57.1558219,7.88194444 L57.9006849,7.88194444 Z M30.8869863,4.81944444 L28.0068493,4.81944444 L28.0068493,5.5 L30.1421233,5.5 C30.0924658,6.61805556 29.1489726,7.29861111 28.0068493,7.29861111 C26.765411,7.29861111 25.7226027,6.32638889 25.7226027,5.01388889 C25.7226027,3.55555556 26.864726,2.68055556 28.0068493,2.68055556 C29.1489726,2.68055556 29.6455479,3.36111111 29.6455479,3.36111111 L30.1421233,2.875 C30.1421233,2.875 29.4965753,2 28.0068493,2 C26.3184932,2 24.9777397,3.3125 24.9777397,5.01388889 C24.9777397,6.61805556 26.2688356,7.97916667 28.0068493,7.97916667 C29.6952055,7.97916667 31.135274,6.76388889 30.8869863,4.81944444 L30.8869863,4.81944444 Z M88.1421233,14.5416667 C89.4828767,14.5416667 90.2277397,15.6597222 90.2277397,16.5347222 C90.2277397,17.4097222 89.5821918,18.5277778 88.1421233,18.5277778 L85.5599315,18.5277778 L85.5599315,14.5416667 L88.1421233,14.5416667 Z M72.6986301,21.0069444 C72.6986301,19.3055556 74.0890411,18.4791667 75.0325342,18.4791667 C75.6284247,18.4791667 76.3732877,18.7708333 76.6712329,19.4027778 L72.6986301,21.0069444 Z M101.053082,23.6319444 C100.357877,23.6319444 99.4640411,23.3402778 99.4640411,22.5138889 C99.4640411,20.7638889 102.691781,20.7638889 103.585616,21.5902778 C103.585616,22.0763889 102.642123,23.6319444 101.053082,23.6319444 L101.053082,23.6319444 Z M42.9041096,23.7291667 C41.5136986,23.7291667 40.4212329,22.5625 40.4212329,21.1527778 C40.4212329,19.6944444 41.4640411,18.5277778 42.9041096,18.5277778 C44.3938356,18.5277778 45.3869863,19.6458333 45.3869863,21.1527778 C45.3869863,22.5625 44.2945205,23.7291667 42.9041096,23.7291667 L42.9041096,23.7291667 Z M62.2705479,23.7291667 C60.8304795,23.7291667 59.8373288,22.5625 59.8373288,21.1527778 C59.8373288,19.6944444 60.8304795,18.5277778 62.2705479,18.5277778 C63.7106164,18.5277778 64.6044521,19.6944444 64.6044521,21.1527778 C64.6044521,22.5625 63.6609589,23.7291667 62.2705479,23.7291667 L62.2705479,23.7291667 Z M67.7825342,25.1875 L69.7191781,25.1875 L69.7191781,12.5486111 L67.7825342,12.5486111 L67.7825342,25.1875 Z M88.0924658,12.6944444 L83.6232877,12.6944444 L83.6232877,25.2361111 L85.5599315,25.2361111 L85.5599315,20.375 L88.0924658,20.375 C90.4760274,20.375 92.2140411,18.8194444 92.2140411,16.5347222 C92.2140411,14.25 90.4760274,12.6944444 88.0924658,12.6944444 L88.0924658,12.6944444 Z M93.9023973,25.2361111 L95.8390411,25.2361111 L95.8390411,12.6944444 L93.9023973,12.6944444 L93.9023973,25.2361111 Z M31.3339041,25.4305556 C35.3065068,25.4305556 38.2859589,22.5138889 37.5907534,18.1388889 L31.3339041,18.1388889 L31.3339041,19.9861111 L35.7534247,19.9861111 C35.505137,22.2708333 33.7671233,23.5833333 31.3339041,23.5833333 C28.5530822,23.5833333 26.4178082,21.4444444 26.4178082,18.7708333 C26.4178082,16 28.6027397,13.9097222 31.3339041,13.9097222 C32.625,13.9097222 33.7174658,14.3472222 34.6609589,15.2222222 L36.0017123,13.9097222 C34.6609589,12.7430556 33.1215753,12.0625 31.3339041,12.0625 C27.609589,12.0625 24.3818493,15.0763889 24.3818493,18.7708333 C24.3818493,22.4652778 27.5599315,25.4305556 31.3339041,25.4305556 L31.3339041,25.4305556 Z M42.9041096,25.4305556 C45.3869863,25.4305556 47.3236301,23.5833333 47.3236301,21.1527778 C47.3236301,18.7222222 45.3869863,16.8263889 42.9041096,16.8263889 C40.4212329,16.8263889 38.484589,18.7222222 38.484589,21.1527778 C38.484589,23.5833333 40.4212329,25.4305556 42.9041096,25.4305556 L42.9041096,25.4305556 Z M75.1815068,25.4305556 C76.9195205,25.4305556 78.1609589,24.5069444 78.8561644,23.5347222 L77.3167808,22.5625 C77.3167808,22.5625 76.7208904,23.7291667 75.1815068,23.7291667 C74.2380137,23.7291667 73.4931507,23.2916667 73.0462329,22.4166667 L78.9058219,20.0347222 C78.359589,18.4305556 77.1181507,16.8263889 74.9828767,16.8263889 C72.5496575,16.8263889 70.8116438,18.7222222 70.8116438,21.1527778 C70.8116438,23.5833333 72.6986301,25.4305556 75.1815068,25.4305556 L75.1815068,25.4305556 Z M103.486301,24.0694444 L103.585616,24.0694444 L103.585616,25.2361111 L105.52226,25.2361111 L105.52226,20.1319444 C105.52226,17.5069444 103.635274,16.2430556 101.351027,16.2430556 C98.5702055,16.2430556 97.7260274,18.2361111 97.7260274,18.2361111 L99.4143836,19.0138889 C99.4143836,19.0138889 99.9109589,17.9930556 101.351027,17.9930556 C102.393836,17.9930556 103.535959,18.625 103.535959,19.8888889 C101.946918,19.0138889 97.4280822,19.2569444 97.4280822,22.4652778 C97.4280822,24.8472222 99.8613014,25.5277778 100.804795,25.5277778 C102.046233,25.5277778 102.840753,25.0416667 103.486301,24.0694444 L103.486301,24.0694444 Z M115.60274,16.7777778 C115.60274,16.7291667 113.318493,16.7291667 113.318493,16.7291667 L110.984589,22.4652778 L108.452055,16.7291667 L106.267123,16.7777778 L109.941781,24.8958333 L107.905822,29.125 L110.090753,29.125 L115.60274,16.7777778 Z M64.4554795,24.3611111 L64.4554795,25.0902778 C64.4554795,26.6458333 63.6609589,27.5694444 62.1215753,27.5694444 C60.4332192,27.5694444 59.9366438,26.0625 59.9366438,26.0625 L58.2482877,26.7430556 C58.2482877,26.7430556 59.1917808,29.2708333 62.1215753,29.2708333 C64.8030822,29.2708333 66.2928082,27.5694444 66.2928082,24.7986111 L66.2928082,17.1180556 L64.4554795,17.1180556 L64.4554795,17.8472222 C64.1078767,17.3611111 63.1643836,16.8263889 62.1215753,16.8263889 C59.7876712,16.8263889 57.9006849,18.8194444 57.9006849,21.1527778 C57.9006849,23.4375 59.7876712,25.4305556 62.1215753,25.4305556 C63.1643836,25.4305556 64.0582192,24.9930556 64.4554795,24.3611111 L64.4554795,24.3611111 Z M52.5376712,23.7291667 C51.1472603,23.7291667 50.0547945,22.5625 50.0547945,21.1527778 C50.0547945,19.6944444 51.0976027,18.5277778 52.5376712,18.5277778 C54.0273973,18.5277778 55.0205479,19.6458333 55.0205479,21.1527778 C55.0205479,22.5625 53.9280822,23.7291667 52.5376712,23.7291667 L52.5376712,23.7291667 Z M52.5376712,25.4305556 C55.0205479,25.4305556 56.9571918,23.5833333 56.9571918,21.1527778 C56.9571918,18.7222222 55.0205479,16.8263889 52.5376712,16.8263889 C50.0547945,16.8263889 48.1181507,18.7222222 48.1181507,21.1527778 C48.1181507,23.5833333 50.0547945,25.4305556 52.5376712,25.4305556 L52.5376712,25.4305556 Z M53.2328767,7.29861111 C51.9417808,7.29861111 50.9982877,6.27777778 50.9982877,5.01388889 C50.9982877,3.75 51.9417808,2.68055556 53.2328767,2.68055556 C54.5239726,2.68055556 55.5171233,3.75 55.5171233,5.01388889 C55.5171233,6.27777778 54.5239726,7.29861111 53.2328767,7.29861111 L53.2328767,7.29861111 Z M53.2328767,7.97916667 C54.9708904,7.97916667 56.2619863,6.66666667 56.2619863,5.01388889 C56.2619863,3.3125 54.9212329,2 53.2328767,2 C51.5445205,2 50.2037671,3.36111111 50.2037671,5.01388889 C50.2037671,6.66666667 51.5445205,7.97916667 53.2328767,7.97916667 L53.2328767,7.97916667 Z" id="Fill-9" fill="#000000"></path>
        <path d="M13.8047945,14.4930556 L0.695205479,24.2152778 C0.297945205,24.0694444 0,23.6319444 0,23 L0,6.03472222 C0,5.35416667 0.297945205,4.91666667 0.744863014,4.77083333 L13.8047945,14.4930556 L13.8047945,14.4930556 Z" id="Shape" fill="url(#linearGradient-1)"></path>
        <path d="M13.8047945,17.7013889 L1.83732877,24.0694444 C1.39041096,24.3125 0.993150685,24.3125 0.695205479,24.2152778 L11.1729452,13.8611111 L13.8047945,17.7013889 L13.8047945,17.7013889 Z" id="Shape" fill="url(#linearGradient-2)"></path>
        <path d="M0.744863014,4.77083333 C1.04280822,4.67361111 1.44006849,4.72222222 1.83732877,4.96527778 L13.755137,11.3333333 L11.1232877,15.0763889 L0.744863014,4.77083333 L0.744863014,4.77083333 Z" id="Shape" fill="url(#linearGradient-3)"></path>
        <path d="M13.755137,11.3333333 L17.9760274,13.5694444 C18.9691781,14.1041667 18.9691781,14.9305556 17.9760274,15.4652778 L13.8047945,17.7013889 L10.5273973,14.4930556 L13.755137,11.3333333 L13.755137,11.3333333 Z" id="Shape" fill="url(#linearGradient-4)"></path>
    </g>
</svg>