<?xml version="1.0" encoding="UTF-8" standalone="no"?>
<svg width="175px" height="41px" viewBox="0 0 175 41" version="1.1" xmlns="http://www.w3.org/2000/svg" xmlns:xlink="http://www.w3.org/1999/xlink">
    <!-- Generator: Sketch 3.7.2 (28276) - http://www.bohemiancoding.com/sketch -->
    <title>logo/logo</title>
    <desc>Created with Sketch.</desc>
    <defs></defs>
    <g id="Symbols" stroke="none" stroke-width="1" fill="none" fill-rule="evenodd">
        <g id="logo/logo">
            <path d="M48.9674038,20.5555038 L48.9674038,20.5011346 C48.9674038,15.1201431 53.08475,10.7123591 58.9871731,10.7123591 C62.6101538,10.7123591 64.7792115,11.9022666 66.5635,13.6327587 L63.8732692,16.6883044 C62.3909615,15.3632508 60.8810577,14.5523739 58.9595769,14.5523739 C55.7205769,14.5523739 53.3867308,17.2024812 53.3867308,20.4475422 L53.3867308,20.5011346 C53.3867308,23.7469724 55.6653846,26.4506721 58.9595769,26.4506721 C61.1554423,26.4506721 62.5005577,25.585426 64.0104615,24.2331878 L66.7006923,26.9104797 C64.7240192,28.9928178 62.5281538,30.2906868 58.8223846,30.2906868 C53.1675385,30.2906868 48.9674038,25.9908645 48.9674038,20.5555038 Z M73,11.0369429 L77.1624375,11.0369429 L77.1624375,18.5251114 L84.8375625,18.5251114 L84.8375625,11.0369429 L89,11.0369429 L89,29.9600198 L84.8375625,29.9600198 L84.8375625,22.3639236 L77.1624375,22.3639236 L77.1624375,29.9600198 L73,29.9600198 L73,11.0369429 Z M96.2900009,20.5555038 L96.2900009,20.5011346 C96.2900009,15.1201431 100.599732,10.7123591 106.529751,10.7123591 C112.458982,10.7123591 116.71352,15.0657739 116.71352,20.4475422 L116.71352,20.5011346 C116.71352,25.8829029 112.403789,30.2906868 106.474559,30.2906868 C100.545328,30.2906868 96.2900009,25.937272 96.2900009,20.5555038 Z M112.304078,20.5555038 L112.304078,20.5011346 C112.304078,17.2568503 109.888232,14.5523739 106.484444,14.5523739 C103.080655,14.5523739 100.720001,17.2024812 100.720001,20.4475422 L100.720001,20.5011346 C100.720001,23.7469724 103.135059,26.4506721 106.539636,26.4506721 C109.943424,26.4506721 112.304078,23.8005648 112.304078,20.5555038 Z M124,29.9600975 L128,29.9600975 L128,11.0370206 L124,11.0370206 L124,29.9600975 Z M136,20.5555038 L136,20.5011346 C136,15.1201431 140.118135,10.7123591 146.019769,10.7123591 C149.643538,10.7123591 151.811808,11.9022666 153.596096,13.6327587 L150.905865,16.6883044 C149.423558,15.3632508 147.913654,14.5523739 145.992173,14.5523739 C142.753173,14.5523739 140.419327,17.2024812 140.419327,20.4475422 L140.419327,20.5011346 C140.419327,23.7469724 142.697981,26.4506721 145.992173,26.4506721 C148.188038,26.4506721 149.533942,25.585426 151.043846,24.2331878 L153.733288,26.9104797 C151.757404,28.9928178 149.56075,30.2906868 145.854981,30.2906868 C140.200135,30.2906868 136,25.9908645 136,20.5555038 Z M160.057692,11.0369429 L174.551192,11.0369429 L174.551192,14.7406513 L164.257038,14.7406513 L164.257038,18.5794635 L173.316462,18.5794635 L173.316462,22.2823954 L164.257038,22.2823954 L164.257038,26.2563114 L174.689173,26.2563114 L174.689173,29.9600198 L160.057692,29.9600198 L160.057692,11.0369429 Z" id="text" fill="#0D1733"></path>
            <path d="M11.0384615,0 L11.0384615,11.0384615 L0,11.0384615 L0,41 L29.96075,41 L29.96075,29.9615385 L41,29.9615385 L41,0 L11.0384615,0 Z M14.9799808,3.94230769 L34.1135769,3.94230769 L27.0158462,11.0384615 L14.9799808,11.0384615 L14.9799808,3.94230769 Z M29.96075,13.9865192 L37.0569038,6.89194231 L37.0569038,26.0192308 L29.96075,26.0192308 L29.96075,13.9865192 Z M14.9799808,26.0192308 L26.0184423,26.0192308 L26.0184423,14.9807692 L14.9799808,14.9807692 L14.9799808,26.0192308 Z M3.94230769,14.9807692 L11.0384615,14.9807692 L11.0384615,27.0134808 L3.94230769,34.1088462 L3.94230769,14.9807692 Z M13.9833654,29.9615385 L26.0192308,29.9615385 L26.0192308,37.0576923 L6.88563462,37.0576923 L13.9833654,29.9615385 Z" id="mark" fill="#0D1733"></path>
            <polygon id="accent" fill="#28D886" points="14.9807692 26.0192308 26.0192308 26.0192308 26.0192308 14.9807692 14.9807692 14.9807692"></polygon>
        </g>
    </g>
</svg>